<svg id="Capa_1" data-name="Capa 1" xmlns="http://www.w3.org/2000/svg" viewBox="0 0 25 25"><defs><style>.cls-1{fill:#fff;}</style></defs><title>gen-icon-plugin-02</title><path class="cls-1" d="M14.75,13.05a.93.93,0,0,1-.56.87,4.47,4.47,0,0,1-1.74.31,4.35,4.35,0,0,1-3.21-1.36A4.5,4.5,0,0,1,7.88,9.53,4.48,4.48,0,0,1,9.24,6.2a4.34,4.34,0,0,1,3.21-1.37,4.75,4.75,0,0,1,2.9,1.09.7.7,0,0,0,.92-.06l1.57-1.58a.72.72,0,0,0,0-1l-.06,0a8.47,8.47,0,0,0-5.33-1.92A8.06,8.06,0,0,0,6.54,3.75,8,8,0,0,0,4.12,9.54a8,8,0,0,0,2.42,5.8,7.94,7.94,0,0,0,4.82,2.35.47.47,0,0,1,.13-.15c.06,0,.77-.39,1.74-.8s2.32-1,3.41-1.33a5.78,5.78,0,0,1,1.84-.36h0V9.6a.74.74,0,0,0-.75-.75H15.49a.75.75,0,0,0-.75.75Z"/><path class="cls-1" d="M20.88,17.94c0-.71-1.49-1.55-2.48-1.66h0a5.31,5.31,0,0,0-1.71.34c-1,.32-2.2.81-3.15,1.23s-1.55.7-1.6.74a.28.28,0,0,0-.12.14.17.17,0,0,0,0,.1c0,.14.39,1.3.43,1.36s.15.39.41.1c.91-.86,6-2.72,5.42-2.26-2.21,1.16-5.75,2.8-5.51,3.61.1.54.65.61,1.23.59s4.87-1.61,5-1.25c0,.14-.31.39-.84.65s-1.37.48-1.81.68-1.23.64-1.19,1,.61.46,1,.42,1.28-.64,1.9-.79a4.9,4.9,0,0,1,1.43-.08c-.3-.31-1.68-.1-1.73-.26s2.25-.17,2.3-1.71c.05-1.25-2.75-.76-2.75-.76s3.78-1.41,3.82-2.12"/></svg>