<svg id="Capa_1" data-name="Capa 1" xmlns="http://www.w3.org/2000/svg" viewBox="0 0 80 80"><defs><style>.cls-1{fill:#fff;}</style></defs><title>gen-icon-plugin</title><path class="cls-1" d="M42.83,41.37a2.72,2.72,0,0,1-1.64,2.55,13.28,13.28,0,0,1-5.1.93,12.79,12.79,0,0,1-9.42-4,13.2,13.2,0,0,1-4-9.81,13.19,13.19,0,0,1,4-9.77,12.76,12.76,0,0,1,9.42-4,13.87,13.87,0,0,1,8.49,3.18,2.06,2.06,0,0,0,2.71-.18l4.6-4.63a2.07,2.07,0,0,0-.17-3.08A24.74,24.74,0,0,0,36.09,6.94a23.64,23.64,0,0,0-17.36,7.15,23.36,23.36,0,0,0-7.09,17,23.3,23.3,0,0,0,7.1,17A23.41,23.41,0,0,0,32.89,55a1.11,1.11,0,0,1,.39-.46c.16-.11,2.26-1.12,5.09-2.35,3-1.31,6.8-2.86,10-3.88a16.47,16.47,0,0,1,5.41-1.07h0v-16a2.2,2.2,0,0,0-2.2-2.2H45a2.21,2.21,0,0,0-2.2,2.2Z"/><path class="cls-1" d="M60.82,55.73c.12-2.08-4.38-4.55-7.29-4.87h-.05a15,15,0,0,0-5,1c-2.95.94-6.48,2.38-9.25,3.59-2.61,1.14-4.56,2.07-4.7,2.17a1,1,0,0,0-.36.43.52.52,0,0,0,0,.28c.09.41,1.14,3.83,1.28,4s.44,1.14,1.19.3c2.66-2.54,17.72-8,15.91-6.64-6.49,3.4-16.88,8.2-16.16,10.59.28,1.59,1.88,1.79,3.61,1.72s14.27-4.7,14.52-3.67c.1.41-.92,1.15-2.48,1.91s-4,1.41-5.32,2-3.59,1.88-3.48,2.78,1.79,1.37,3,1.25,3.76-1.89,5.58-2.32A14.68,14.68,0,0,1,56,70c-.88-.89-4.93-.27-5.08-.76s6.62-.5,6.77-5C57.84,60.57,49.6,62,49.6,62s11.1-4.14,11.22-6.22"/></svg>